<svg width="116" height="48" viewBox="0 0 116 48" fill="none" xmlns="http://www.w3.org/2000/svg">
<g id="Group 215">
<path id="Vector" d="M98.9001 45.2315H16.6698C7.52134 45.2315 0.0358887 36.319 0.0358887 25.428V27.9302C0.0358887 38.8248 7.52134 47.7337 16.6698 47.7337H98.9001C108.049 47.7337 115.538 38.8213 115.538 27.9302V25.428C115.538 36.319 108.049 45.2315 98.9001 45.2315Z" fill="#A7A9AC"/>
<path id="Vector_2" d="M98.9001 43.0596H16.6698C7.52134 43.0596 0.0358887 34.1471 0.0358887 23.256V25.4279C0.0358887 36.3225 7.52134 45.2314 16.6698 45.2314H98.9001C108.049 45.2314 115.538 36.319 115.538 25.4279V23.256C115.538 34.1471 108.049 43.0596 98.9001 43.0596Z" fill="#BCBEC0"/>
<path id="Vector_3" d="M98.9001 0.749939H16.6698C7.52134 0.749939 0.0358887 9.6624 0.0358887 20.557V23.256C0.0358887 34.1506 7.52134 43.0595 16.6698 43.0595H98.9001C108.049 43.0595 115.538 34.1471 115.538 23.256V20.557C115.538 9.6624 108.049 0.749939 98.9001 0.749939Z" fill="white"/>
<path id="Vector_4" d="M19.3886 39.0919H96.1955C100.312 39.0798 104.257 37.4468 107.168 34.5495C110.078 31.6522 111.719 27.726 111.731 23.6286V21.52C111.731 21.4919 111.731 21.4673 111.731 21.4391C111.699 25.5231 110.049 29.4295 107.14 32.3102C104.232 35.1908 100.299 36.8132 96.1955 36.8251H19.3886C15.2853 36.8132 11.3524 35.1908 8.44373 32.3102C5.53502 29.4295 3.88531 25.5231 3.85278 21.4391C3.85278 21.4673 3.85278 21.4919 3.85278 21.52V23.6286C3.86489 27.726 5.5056 31.6522 8.41651 34.5495C11.3274 37.4468 15.272 39.0798 19.3886 39.0919Z" fill="#C0C0C0"/>
<path id="Vector_5" d="M19.3886 36.8286H96.1955C100.299 36.8167 104.232 35.1943 107.14 32.3137C110.049 29.433 111.699 25.5266 111.731 21.4427C111.731 21.4181 111.731 21.3935 111.731 21.3653V19.8577C111.719 23.9551 110.078 27.8812 107.168 30.7785C104.257 33.6759 100.312 35.3089 96.1955 35.3209H19.3886C15.272 35.3089 11.3274 33.6759 8.41651 30.7785C5.5056 27.8812 3.86489 23.9551 3.85278 19.8577V21.3653C3.85278 21.3935 3.85278 21.4181 3.85278 21.4427C3.88531 25.5266 5.53502 29.433 8.44373 32.3137C11.3524 35.1943 15.2853 36.8167 19.3886 36.8286Z" fill="#9E9E9E"/>
<path id="Vector_6" d="M18.3955 35.5857H96.4485C100.632 35.5735 104.64 33.9284 107.599 31.0096C110.557 28.0908 112.224 24.1355 112.236 20.0077V17.8835C112.224 13.7557 110.557 9.80043 107.599 6.88163C104.64 3.96283 100.632 2.31768 96.4485 2.30554H18.3955C14.2121 2.31768 10.2036 3.96283 7.24543 6.88163C4.2873 9.80043 2.61997 13.7557 2.60767 17.8835V20.0077C2.61997 24.1355 4.2873 28.0908 7.24543 31.0096C10.2036 33.9284 14.2121 35.5735 18.3955 35.5857Z" fill="#7C7C7C"/>
<path id="Vector_7" opacity="0.3" d="M98.254 8.31994C98.254 11.9257 80.1336 19.8576 57.7868 19.8576C35.44 19.8576 17.3196 11.9257 17.3196 8.31994C17.3196 4.71419 34.7691 4.61578 57.1159 4.61578C79.4628 4.61578 98.254 4.71419 98.254 8.31994Z" fill="white"/>
</g>
</svg>
