<svg width="116" height="48" viewBox="0 0 116 48" fill="none" xmlns="http://www.w3.org/2000/svg">
<g id="Group 4">
<path id="Vector" d="M98.8642 45.2315H16.6339C7.48545 45.2315 0 36.319 0 25.428V27.9302C0 38.8248 7.48545 47.7337 16.6339 47.7337H98.8642C108.013 47.7337 115.502 38.8213 115.502 27.9302V25.428C115.502 36.319 108.013 45.2315 98.8642 45.2315Z" fill="#A7A9AC"/>
<path id="Vector_2" d="M98.8642 43.0596H16.6339C7.48545 43.0596 0 34.1471 0 23.256V25.4279C0 36.3225 7.48545 45.2314 16.6339 45.2314H98.8642C108.013 45.2314 115.502 36.319 115.502 25.4279V23.256C115.502 34.1471 108.013 43.0596 98.8642 43.0596Z" fill="#BCBEC0"/>
<path id="Vector_3" d="M98.8642 0.75H16.6339C7.48545 0.75 0 9.66246 0 20.557V23.2561C0 34.1507 7.48545 43.0596 16.6339 43.0596H98.8642C108.013 43.0596 115.502 34.1471 115.502 23.2561V20.557C115.502 9.66246 108.013 0.75 98.8642 0.75Z" fill="white"/>
<path id="Vector_4" d="M19.3525 39.0919H96.1593C100.276 39.0798 104.221 37.4468 107.131 34.5495C110.042 31.6522 111.683 27.726 111.695 23.6286V21.52C111.695 21.4919 111.695 21.4673 111.695 21.4391C111.663 25.5231 110.013 29.4295 107.104 32.3102C104.196 35.1908 100.263 36.8132 96.1593 36.8251H19.3525C15.2492 36.8132 11.3163 35.1908 8.40759 32.3102C5.49888 29.4295 3.84918 25.5231 3.81665 21.4391C3.81665 21.4673 3.81665 21.4919 3.81665 21.52V23.6286C3.82876 27.726 5.46947 31.6522 8.38037 34.5495C11.2913 37.4468 15.2358 39.0798 19.3525 39.0919Z" fill="#0883C9"/>
<path id="Vector_5" d="M19.3525 36.8286H96.1593C100.263 36.8167 104.196 35.1943 107.104 32.3137C110.013 29.433 111.663 25.5266 111.695 21.4427C111.695 21.4181 111.695 21.3935 111.695 21.3653V19.8577C111.683 23.9551 110.042 27.8812 107.131 30.7785C104.221 33.6759 100.276 35.3089 96.1593 35.3209H19.3525C15.2358 35.3089 11.2913 33.6759 8.38037 30.7785C5.46947 27.8812 3.82876 23.9551 3.81665 19.8577V21.3653C3.81665 21.3935 3.81665 21.4181 3.81665 21.4427C3.84918 25.5266 5.49888 29.433 8.40759 32.3137C11.3163 35.1943 15.2492 36.8167 19.3525 36.8286Z" fill="#52ABDF"/>
<path id="Vector_6" d="M19.4214 35.5857H96.0806C100.189 35.5735 104.126 33.9284 107.032 31.0096C109.937 28.0908 111.574 24.1355 111.587 20.0077V17.8835C111.574 13.7557 109.937 9.80043 107.032 6.88163C104.126 3.96283 100.189 2.31768 96.0806 2.30554H19.4214C15.3127 2.31768 11.3758 3.96283 8.47047 6.88163C5.56517 9.80043 3.92761 13.7557 3.91553 17.8835V20.0077C3.92761 24.1355 5.56517 28.0908 8.47047 31.0096C11.3758 33.9284 15.3127 35.5735 19.4214 35.5857Z" fill="#0988D1"/>
<path id="Vector_7" opacity="0.3" d="M98.2181 8.31994C98.2181 11.9257 80.0978 19.8576 57.7509 19.8576C35.4041 19.8576 17.2837 11.9257 17.2837 8.31994C17.2837 4.71419 34.7332 4.61578 57.08 4.61578C79.4269 4.61578 98.2181 4.71419 98.2181 8.31994Z" fill="white"/>
</g>
</svg>
