<svg width="324" height="60" viewBox="0 0 324 60" fill="none" xmlns="http://www.w3.org/2000/svg">
<path d="M158.364 17.0255C157.528 17.9427 147.638 18.1674 147.638 18.1674C147.638 18.1674 153.557 22.6543 152.976 24.0874C152.396 25.5206 150.398 26.3097 150.398 26.3097C150.398 26.3097 148.949 30.2382 139.918 29.6062C130.888 28.9742 126.527 20.0634 127.126 15.3518C127.726 10.6403 132.074 8.22224 132.074 8.22224C132.074 8.22224 133.364 4.44597 135.49 4.11003C137.617 3.77409 144.405 3.92273 151.56 8.78052C158.715 13.6383 159.085 16.2316 158.364 17.0243V17.0255Z" fill="#EBB44D"/>
<path d="M129.011 10.9533C130.419 9.14185 132.074 8.22104 132.074 8.22104C132.074 8.22104 132.999 5.51421 134.573 4.48102C133.776 5.69909 133.104 6.97638 132.814 9.09955C132.569 10.8904 130.864 9.9394 129.012 10.9533H129.011Z" fill="#EB944D"/>
<path d="M127.126 15.3519C127.3 13.9815 127.792 12.8069 128.402 11.8281C129.225 11.8064 129.207 13.9815 130.257 16.5578C132.206 21.3383 139.432 28.9054 152.463 24.8934C151.654 25.8142 150.398 26.3097 150.398 26.3097C150.398 26.3097 148.949 30.2382 139.918 29.6062C130.888 28.9742 126.527 20.0634 127.126 15.3519Z" fill="#EB944D"/>
<path d="M137.122 9.94302C135.2 7.82105 135.842 6.66944 136.863 7.14918C137.886 7.63012 138.767 10.94 144.042 15.1102C146.315 16.9071 150.167 17.6261 153.121 17.9101C150.395 18.1046 147.637 18.1662 147.637 18.1662C145.412 16.8805 139.043 12.0638 137.121 9.94181L137.122 9.94302Z" fill="#AC462F"/>
<path d="M134.171 26.5441C126.918 23.1932 127.373 15.8461 128.039 14.3465C128.434 13.4571 128.571 16.3778 129.326 18.942C130.416 22.6361 132.052 24.7847 137.395 26.5901C142.298 28.2468 150.396 26.3085 150.396 26.3085C150.396 26.3085 141.26 29.8177 134.17 26.5429L134.171 26.5441Z" fill="#AC462F"/>
<path d="M135.64 6.17401C134.682 6.82775 134.622 8.11833 134.741 9.16602C134.895 10.5424 135.479 11.8922 136.315 12.9894C136.786 13.6081 135.805 14.3042 135.337 13.6891C134.324 12.3598 133.682 10.7212 133.52 9.05848C133.383 7.64826 133.699 6.04229 134.94 5.1964C135.581 4.75896 136.281 5.73777 135.64 6.17401Z" fill="#F7CE69"/>
<path d="M136.722 14.9531C136.703 14.9543 136.685 14.9567 136.665 14.9579C136.339 14.9881 136.041 14.7416 136.011 14.4141C135.981 14.0879 136.228 13.7906 136.555 13.7604C136.575 13.7592 136.593 13.7568 136.612 13.7556C136.938 13.7253 137.236 13.9719 137.266 14.2981C137.296 14.6244 137.048 14.9217 136.722 14.9519V14.9531Z" fill="#F7CE69"/>
<path d="M153.733 13.2033C152.883 12.3115 151.887 11.6058 150.831 10.9786C150.171 10.5871 150.672 9.49228 151.34 9.88864C152.484 10.5678 153.58 11.3121 154.501 12.2777C154.728 12.5145 154.807 12.8504 154.58 13.1235C154.389 13.3531 153.96 13.4389 153.733 13.2021V13.2033Z" fill="#F7CE69"/>
<path d="M149.91 10.1847C149.138 10.256 149.027 9.05846 149.799 8.98716C150.572 8.91587 150.683 10.1122 149.91 10.1847Z" fill="#F7CE69"/>
<path d="M153.172 16.2195C153.505 16.1881 153.554 16.7053 153.22 16.7367C152.886 16.7669 152.838 16.2509 153.172 16.2195Z" fill="#E57A34"/>
<path d="M151.933 15.9995C152.064 15.7373 152.482 15.7929 152.506 16.0998C152.506 16.1059 152.506 16.1119 152.507 16.118C152.523 16.3161 152.346 16.4829 152.148 16.4479C151.957 16.414 151.835 16.1941 151.924 16.0165C151.927 16.0104 151.93 16.0056 151.933 15.9995Z" fill="#E57A34"/>
<path d="M152.421 16.5083C152.615 16.4902 152.791 16.6364 152.809 16.8298C152.827 17.0231 152.681 17.1995 152.488 17.2177C152.294 17.2358 152.118 17.0896 152.1 16.8962C152.081 16.7029 152.228 16.5265 152.421 16.5083Z" fill="#E57A34"/>
<path d="M151.363 16.3959C151.611 16.3729 151.646 16.7572 151.398 16.7802C151.151 16.8031 151.114 16.4188 151.363 16.3959Z" fill="#E57A34"/>
<path d="M151.652 16.947C151.741 16.8672 151.894 16.9941 151.832 17.0968C151.825 17.1077 151.819 17.1198 151.812 17.1306C151.705 17.3059 151.47 17.1101 151.623 16.9736C151.633 16.9651 151.643 16.9566 151.653 16.947H151.652Z" fill="#E57A34"/>
<path d="M150.207 16.1808C150.124 16.2171 150.024 16.1349 150.045 16.0467C150.047 16.0358 150.049 16.0237 150.053 16.0116C150.077 15.9113 150.194 15.8594 150.279 15.9295C150.362 15.9983 150.333 16.1252 150.239 16.1663C150.228 16.1711 150.217 16.176 150.207 16.1808Z" fill="#E57A34"/>
<path d="M151.006 15.5138C151.246 15.492 151.28 15.8642 151.041 15.8872C150.8 15.9089 150.766 15.5367 151.006 15.5138Z" fill="#E57A34"/>
<path d="M150.703 16.6062C150.696 16.6098 150.69 16.6146 150.683 16.6183C150.602 16.6654 150.493 16.6291 150.483 16.5276C150.474 16.4261 150.575 16.3693 150.662 16.402C150.67 16.4044 150.677 16.4068 150.685 16.4104C150.763 16.4382 150.775 16.5663 150.703 16.6074V16.6062Z" fill="#E57A34"/>
<path d="M148.339 15.6298C148.525 15.6129 148.552 15.9017 148.365 15.9186C148.179 15.9355 148.153 15.6467 148.339 15.6298Z" fill="#E57A34"/>
<path d="M147.19 14.8661C147.178 14.8697 147.168 14.8721 147.155 14.8745C147.042 14.9023 146.955 14.8298 146.962 14.7138C146.962 14.7017 146.963 14.6909 146.964 14.6788C146.973 14.5471 147.151 14.5048 147.239 14.5785C147.328 14.6522 147.319 14.8347 147.19 14.8673V14.8661Z" fill="#E57A34"/>
<path d="M149.611 15.8883C149.611 15.8883 149.602 15.8944 149.598 15.8968C149.567 15.9198 149.525 15.9234 149.49 15.9065C149.485 15.9041 149.481 15.9016 149.476 15.9004C149.422 15.875 149.389 15.8134 149.401 15.7554C149.403 15.747 149.405 15.7385 149.406 15.7288C149.429 15.6056 149.605 15.5887 149.65 15.7059C149.654 15.7143 149.657 15.7228 149.66 15.7312C149.682 15.7868 149.66 15.8533 149.613 15.8883H149.611Z" fill="#E57A34"/>
<path d="M149.456 16.2002C149.58 16.1881 149.631 16.3246 149.571 16.4177C149.567 16.4237 149.563 16.4286 149.56 16.4346C149.527 16.483 149.439 16.4914 149.398 16.4491C149.393 16.4443 149.388 16.4394 149.383 16.4346C149.306 16.3549 149.331 16.2111 149.456 16.2002Z" fill="#E57A34"/>
<path d="M147.077 15.6902C147.174 15.5935 147.351 15.6286 147.365 15.7796C147.379 15.9307 147.211 15.9983 147.099 15.9198C147.094 15.9162 147.088 15.9125 147.083 15.9089C147.022 15.8666 147.012 15.7579 147.064 15.7047C147.068 15.6999 147.073 15.695 147.077 15.6914V15.6902Z" fill="#E57A34"/>
<path d="M154.294 17.0509C154.57 17.0255 154.61 17.4545 154.333 17.4811C154.057 17.5065 154.017 17.0775 154.294 17.0509Z" fill="#E57A34"/>
<path d="M155.93 17.1427C156.006 17.069 156.143 17.0932 156.154 17.2116C156.165 17.33 156.034 17.3796 155.946 17.3216C155.94 17.3179 155.935 17.3143 155.929 17.3107C155.883 17.2805 155.876 17.1959 155.915 17.1584C155.919 17.1536 155.924 17.1488 155.929 17.1439L155.93 17.1427Z" fill="#E57A34"/>
<path d="M155.17 16.7705C155.184 16.7584 155.199 16.7524 155.217 16.7451C155.265 16.727 155.314 16.7693 155.307 16.8188C155.302 16.8503 155.294 16.8684 155.278 16.895C155.252 16.9385 155.197 16.9469 155.164 16.9058C155.154 16.8938 155.147 16.8817 155.141 16.8672C155.124 16.8321 155.143 16.7935 155.171 16.7705H155.17Z" fill="#E57A34"/>
<path d="M153.005 17.1621C153.074 17.0956 153.197 17.1174 153.208 17.2249C153.218 17.3325 153.1 17.3772 153.021 17.324C153.015 17.3204 153.01 17.3168 153.004 17.3131C152.963 17.2865 152.955 17.2116 152.99 17.1778C152.995 17.173 153 17.1681 153.005 17.1633V17.1621Z" fill="#E57A34"/>
<path d="M154.277 16.6473C154.152 16.6581 154.135 16.466 154.259 16.4551C154.383 16.4443 154.4 16.6364 154.277 16.6473Z" fill="#E57A34"/>
<path d="M157.273 16.6835C157.374 16.6738 157.388 16.8309 157.288 16.8394C157.188 16.8491 157.173 16.692 157.273 16.6835Z" fill="#E57A34"/>
<path d="M131.401 13.0233C131.734 12.9918 131.783 13.509 131.449 13.5405C131.115 13.5707 131.067 13.0547 131.401 13.0233Z" fill="#E57A34"/>
<path d="M130.685 12.4456C130.817 12.4335 130.935 12.5326 130.947 12.6643C130.96 12.7948 130.86 12.9145 130.729 12.9266C130.597 12.9386 130.478 12.8395 130.466 12.7078C130.454 12.5761 130.553 12.4577 130.685 12.4456Z" fill="#E57A34"/>
<path d="M131.541 12.3659C131.704 12.3514 131.727 12.6039 131.564 12.6184C131.401 12.6329 131.378 12.3816 131.541 12.3659Z" fill="#E57A34"/>
<path d="M130.987 13.8474C130.794 13.8655 130.766 13.5646 130.96 13.5465C131.153 13.5284 131.181 13.8293 130.987 13.8474Z" fill="#E57A34"/>
<path d="M131.013 14.5446C131.025 14.5338 131.037 14.5229 131.049 14.5108C131.076 14.4866 131.134 14.4818 131.164 14.4999C131.177 14.5084 131.192 14.518 131.205 14.5265C131.31 14.5942 131.239 14.7573 131.13 14.7682C131.021 14.7779 130.922 14.6304 131.013 14.5446Z" fill="#E57A34"/>
<path d="M130.243 13.5731C130.226 13.5429 130.215 13.5187 130.209 13.4837C130.192 13.3894 130.291 13.3157 130.377 13.329C130.379 13.329 130.382 13.329 130.384 13.329C130.466 13.3423 130.53 13.4474 130.486 13.5235C130.477 13.538 130.458 13.584 130.471 13.5501C130.437 13.6371 130.29 13.6577 130.243 13.5707V13.5731Z" fill="#E57A34"/>
<path d="M130.075 12.3755C130.251 12.3598 130.277 12.6329 130.1 12.6498C129.924 12.6655 129.898 12.3924 130.075 12.3755Z" fill="#E57A34"/>
<path d="M129.441 11.7544C129.604 11.7399 129.627 11.9925 129.464 12.007C129.301 12.0215 129.278 11.7689 129.441 11.7544Z" fill="#E57A34"/>
<path d="M130.653 12.088C130.466 12.1049 130.44 11.8161 130.626 11.7991C130.812 11.7822 130.839 12.071 130.653 12.088Z" fill="#E57A34"/>
<path d="M130.395 14.5978C130.563 14.5821 130.586 14.8419 130.419 14.8576C130.252 14.8733 130.228 14.6135 130.395 14.5978Z" fill="#E57A34"/>
<path d="M131.07 15.5307C131.07 15.5404 131.071 15.5489 131.072 15.5585C131.086 15.7217 130.834 15.7446 130.819 15.5815C130.819 15.5718 130.818 15.5634 130.817 15.5537C130.801 15.3906 131.054 15.3676 131.07 15.5307Z" fill="#E57A34"/>
<path d="M131.228 16.4358C131.239 16.518 131.352 16.5361 131.386 16.4696C131.467 16.4116 131.4 16.263 131.305 16.3125C131.257 16.3391 131.219 16.3766 131.227 16.4358H131.228ZM131.39 16.46C131.39 16.46 131.395 16.4503 131.396 16.443C131.394 16.4479 131.392 16.4539 131.39 16.46Z" fill="#E57A34"/>
<path d="M131.866 17.1161C131.952 17.1089 131.964 17.2406 131.878 17.2491C131.792 17.2575 131.78 17.1246 131.866 17.1161Z" fill="#E57A34"/>
<path d="M151.124 23.2826C151.134 23.2754 151.143 23.2693 151.153 23.2645C151.292 23.1835 151.442 23.3068 151.386 23.459C151.383 23.4699 151.379 23.4808 151.374 23.4917C151.33 23.5895 151.198 23.6185 151.114 23.5497C151.031 23.4808 151.036 23.3467 151.124 23.2838V23.2826Z" fill="#E57A34"/>
<path d="M150.78 22.6192C150.78 22.6192 150.786 22.6216 150.788 22.6228C150.928 22.6869 150.946 22.8875 150.821 22.9757C150.818 22.9769 150.816 22.9793 150.813 22.9805C150.442 23.2428 150.366 22.4283 150.78 22.618V22.6192Z" fill="#E57A34"/>
<path d="M150.388 23.2983C150.416 23.2198 150.544 23.2089 150.585 23.2802C150.589 23.2874 150.593 23.2947 150.597 23.3019C150.644 23.3829 150.608 23.4929 150.505 23.5013C150.402 23.511 150.347 23.4095 150.378 23.3213C150.381 23.314 150.384 23.3056 150.387 23.2983H150.388Z" fill="#E57A34"/>
<path d="M149.602 23.2343C149.602 23.2415 149.601 23.2476 149.6 23.2548C149.584 23.3793 149.392 23.3974 149.353 23.2778C149.351 23.2717 149.349 23.2645 149.347 23.2584C149.281 23.0494 149.629 23.0168 149.602 23.2355V23.2343Z" fill="#E57A34"/>
<path d="M148.548 23.1847C148.727 23.1678 148.752 23.4445 148.573 23.4615C148.394 23.4784 148.369 23.2017 148.548 23.1847Z" fill="#E57A34"/>
<path d="M147.234 22.9818C147.326 22.9733 147.365 23.0917 147.296 23.1449C147.292 23.1485 147.288 23.1509 147.284 23.1546C147.265 23.1691 147.238 23.1715 147.217 23.1606C147.213 23.1582 147.209 23.1558 147.204 23.1533C147.125 23.1123 147.141 22.989 147.234 22.9818Z" fill="#E57A34"/>
<path d="M148.971 22.4754C149.087 22.4645 149.104 22.6446 148.988 22.6554C148.872 22.6663 148.855 22.4863 148.971 22.4754Z" fill="#E57A34"/>
<path d="M149.774 22.438C149.845 22.4319 149.854 22.5401 149.784 22.5474C149.713 22.5535 149.703 22.4453 149.774 22.438Z" fill="#E57A34"/>
<path d="M150.11 22.0235C150.265 22.009 150.288 22.2494 150.132 22.2639C149.977 22.2784 149.954 22.038 150.11 22.0235Z" fill="#E57A34"/>
<path d="M149.712 21.145C149.86 21.1317 149.88 21.3601 149.733 21.3734C149.585 21.3866 149.565 21.1583 149.712 21.145Z" fill="#E57A34"/>
<path d="M148.925 20.4139C149.034 20.4042 149.05 20.5722 148.941 20.5819C148.832 20.5916 148.816 20.4236 148.925 20.4139Z" fill="#E57A34"/>
<path d="M151.472 22.1286C151.565 22.1201 151.603 22.2374 151.534 22.2917C151.53 22.2954 151.527 22.2978 151.522 22.3002C151.504 22.3147 151.475 22.3171 151.455 22.3062C151.45 22.3038 151.447 22.3014 151.442 22.3002C151.363 22.2591 151.379 22.1371 151.472 22.1286Z" fill="#E57A34"/>
<path d="M152.004 23.1715C152.015 23.1666 152.026 23.1618 152.037 23.157C152.09 23.1328 152.155 23.1872 152.142 23.244C152.139 23.256 152.136 23.2669 152.133 23.279C152.118 23.3491 152.035 23.3841 151.976 23.3358C151.918 23.2875 151.939 23.2005 152.004 23.1715Z" fill="#E57A34"/>
<path d="M141.516 14.8045C141.521 14.8105 141.525 14.8165 141.53 14.8226C141.627 14.9567 141.474 15.1525 141.32 15.0739C141.313 15.0703 141.307 15.0667 141.3 15.0631C141.201 15.0123 141.166 14.883 141.239 14.7936C141.312 14.7066 141.45 14.7126 141.516 14.8045Z" fill="#E57A34"/>
<path d="M140.35 13.9948C140.426 14.0564 140.459 14.1555 140.417 14.2474C140.417 14.2474 140.417 14.2498 140.416 14.251C140.369 14.3561 140.243 14.3936 140.142 14.3513C140.137 14.3501 140.132 14.3477 140.129 14.3465C140.023 14.3018 139.981 14.1688 140.028 14.0685C140.086 13.9453 140.246 13.9126 140.351 13.996L140.35 13.9948Z" fill="#E57A34"/>
<path d="M139.008 13.109C139.178 13.0933 139.203 13.358 139.032 13.3737C138.862 13.3894 138.837 13.1247 139.008 13.109Z" fill="#E57A34"/>
<path d="M140.601 14.8105C140.601 14.8105 140.605 14.8165 140.607 14.8189C140.674 14.9192 140.593 15.0558 140.471 15.0352C140.467 15.0352 140.465 15.034 140.461 15.034C140.37 15.0195 140.318 14.9156 140.357 14.8334C140.402 14.7392 140.542 14.721 140.602 14.8105H140.601Z" fill="#E57A34"/>
<path d="M139.199 13.9477C139.246 13.9296 139.308 13.9501 139.336 13.9936C139.337 13.9948 139.339 13.996 139.34 13.9972C139.384 14.0323 139.395 14.1084 139.355 14.1507C139.352 14.1531 139.35 14.1567 139.348 14.1592C139.309 14.199 139.257 14.2135 139.205 14.1906C139.154 14.1688 139.125 14.1205 139.126 14.0661C139.128 14.0142 139.148 13.9682 139.2 13.9477H139.199Z" fill="#E57A34"/>
<path d="M139.591 15.0486C139.689 15.0401 139.73 15.1658 139.656 15.2238C139.652 15.2274 139.649 15.2298 139.645 15.2322C139.626 15.248 139.594 15.2504 139.572 15.2395C139.568 15.2371 139.564 15.2347 139.559 15.2322C139.476 15.1887 139.493 15.0582 139.592 15.0486H139.591Z" fill="#E57A34"/>
<path d="M138.379 12.5338C138.55 12.5181 138.574 12.7828 138.404 12.7985C138.233 12.8142 138.209 12.5496 138.379 12.5338Z" fill="#E57A34"/>
<path d="M139.747 13.3108C139.94 13.2927 139.968 13.5936 139.774 13.6117C139.58 13.6299 139.553 13.329 139.747 13.3108Z" fill="#E57A34"/>
<path d="M140.844 13.6649C140.973 13.6528 141.028 13.8184 140.93 13.8945C140.926 13.8969 140.923 13.9005 140.919 13.903C140.891 13.9247 140.847 13.9283 140.816 13.9126C140.811 13.9102 140.808 13.9078 140.803 13.9066C140.693 13.8498 140.716 13.677 140.845 13.6649H140.844Z" fill="#E57A34"/>
<path d="M141.157 4.89915C141.416 4.87498 141.453 5.27617 141.195 5.30034C140.936 5.32451 140.899 4.92332 141.157 4.89915Z" fill="#E57A34"/>
<path d="M139.537 4.79034C139.516 4.55591 139.809 4.46891 139.947 4.63808C139.95 4.64171 139.953 4.64533 139.957 4.64896C139.999 4.70092 140.009 4.79397 139.976 4.85318C139.974 4.85801 139.971 4.86164 139.969 4.86647C139.864 5.05861 139.559 5.02598 139.537 4.79155V4.79034Z" fill="#E57A34"/>
<path d="M140.338 5.07193C140.508 5.05622 140.532 5.32086 140.362 5.33657C140.191 5.35228 140.167 5.08764 140.338 5.07193Z" fill="#E57A34"/>
<path d="M140.097 5.6882C140.096 5.69787 140.095 5.70633 140.093 5.716C140.081 5.8163 139.927 5.82959 139.896 5.73412C139.894 5.72567 139.89 5.716 139.888 5.70754C139.835 5.53595 140.119 5.51057 140.097 5.6882Z" fill="#E57A34"/>
<path d="M138.892 4.6659C138.975 4.61877 139.088 4.67678 139.096 4.77466C139.106 4.87375 138.993 4.96679 138.899 4.91362C138.836 4.87858 138.8 4.83266 138.811 4.75774C138.816 4.71665 138.851 4.68282 138.892 4.66711V4.6659Z" fill="#E57A34"/>
<path d="M136.849 4.46049C136.886 4.40611 136.966 4.38436 137.028 4.39524C137.032 4.39524 137.035 4.39524 137.039 4.39765C137.096 4.40732 137.149 4.44961 137.167 4.50399C137.167 4.50762 137.169 4.51124 137.171 4.51487C137.202 4.61033 137.161 4.72271 137.061 4.75776C137.057 4.75776 137.054 4.76018 137.051 4.76138C136.866 4.82664 136.74 4.61758 136.843 4.46895C136.844 4.46653 136.847 4.46291 136.848 4.46049H136.849Z" fill="#E57A34"/>
<path d="M42.6189 15.523V19.9677C42.6189 20.6092 42.7182 21.0598 42.9167 21.3194C43.1153 21.5791 43.4513 21.7089 43.9248 21.7089H45.7348V24H43.9248C42.8556 24 42.0079 23.8702 41.3817 23.6105C40.7708 23.3509 40.3278 22.9308 40.0529 22.3504C39.778 21.77 39.6405 20.9758 39.6405 19.9677V11.5594C39.6405 11.147 39.5565 10.811 39.3885 10.5514C39.2357 10.2917 38.9532 10.0091 38.5408 9.70366L40.534 7.96244C41.313 8.35956 41.8552 8.81778 42.1607 9.33709C42.4662 9.84113 42.6189 10.5514 42.6189 11.4678V13.2319H45.7348V15.523H42.6189ZM54.126 12.957C55.3021 12.957 56.2033 13.2777 56.8295 13.9192C57.471 14.5608 57.7918 15.4772 57.7918 16.6685V24H54.8134V16.9435C54.8134 16.4242 54.6683 16.0118 54.378 15.7063C54.1031 15.4008 53.7289 15.2481 53.2554 15.2481C52.2473 15.2481 51.5218 15.8438 51.0789 17.0351V24H48.1005V10.4139C48.1005 10.0015 48.0165 9.66548 47.8485 9.40582C47.6957 9.14617 47.4132 8.8636 47.0008 8.55812L48.994 6.8169C49.773 7.21402 50.3152 7.67224 50.6207 8.19155C50.9262 8.69559 51.0789 9.40582 51.0789 10.3223V14.3087C51.7815 13.4076 52.7972 12.957 54.126 12.957ZM65.1613 22.0297C65.7265 22.0297 66.1847 21.9609 66.536 21.8235C66.8873 21.6707 67.2691 21.4111 67.6815 21.0445L69.4457 22.6483C68.5598 23.7327 67.1317 24.2749 65.1613 24.2749C63.4048 24.2749 62.1371 23.9465 61.3581 23.2898C60.5792 22.6177 60.1897 21.5333 60.1897 20.0364V16.7602C60.1897 15.5841 60.6097 14.66 61.4498 13.988C62.3051 13.3007 63.4659 12.957 64.9322 12.957C66.4443 12.957 67.6281 13.3236 68.4834 14.0567C69.3387 14.7746 69.7664 15.8285 69.7664 17.2184C69.7664 17.8905 69.7053 18.4098 69.5831 18.7763C69.4762 19.1429 69.2547 19.4178 68.9187 19.6011C68.5827 19.7691 68.0939 19.8531 67.4524 19.8531H63.1452V20.0593C63.1452 21.3729 63.8172 22.0297 65.1613 22.0297ZM64.9322 15.2023C64.3671 15.2023 63.9242 15.3703 63.6034 15.7063C63.2979 16.027 63.1452 16.4547 63.1452 16.9893V17.8141H65.757C66.1541 17.8141 66.4291 17.753 66.5818 17.6308C66.7345 17.5086 66.8109 17.2948 66.8109 16.9893C66.8109 16.4089 66.6505 15.9659 66.3298 15.6605C66.009 15.355 65.5432 15.2023 64.9322 15.2023ZM84.5768 12.957C85.7529 12.957 86.6541 13.2777 87.2803 13.9192C87.9218 14.5608 88.2425 15.4772 88.2425 16.6685V24H85.2641V16.9435C85.2641 16.4242 85.119 16.0118 84.8288 15.7063C84.5539 15.4008 84.1797 15.2481 83.7062 15.2481C82.6981 15.2481 81.9726 15.8438 81.5297 17.0351V24H78.5513V16.554C78.5513 16.1416 78.4673 15.8056 78.2992 15.5459C78.1465 15.2863 77.8639 15.0037 77.4515 14.6982L79.4448 12.957C79.9335 13.2014 80.3154 13.461 80.5903 13.736C80.8805 14.0109 81.102 14.3316 81.2547 14.6982C81.5755 14.1789 82.0032 13.7589 82.5377 13.4381C83.0876 13.1174 83.7673 12.957 84.5768 12.957ZM95.6121 22.0297C96.1772 22.0297 96.6355 21.9609 96.9868 21.8235C97.3381 21.6707 97.7199 21.4111 98.1323 21.0445L99.8964 22.6483C99.0105 23.7327 97.5824 24.2749 95.6121 24.2749C93.8556 24.2749 92.5879 23.9465 91.8089 23.2898C91.03 22.6177 90.6405 21.5333 90.6405 20.0364V16.7602C90.6405 15.5841 91.0605 14.66 91.9006 13.988C92.7559 13.3007 93.9167 12.957 95.383 12.957C96.8951 12.957 98.0788 13.3236 98.9342 14.0567C99.7895 14.7746 100.217 15.8285 100.217 17.2184C100.217 17.8905 100.156 18.4098 100.034 18.7763C99.927 19.1429 99.7055 19.4178 99.3695 19.6011C99.0335 19.7691 98.5447 19.8531 97.9032 19.8531H93.596V20.0593C93.596 21.3729 94.268 22.0297 95.6121 22.0297ZM95.383 15.2023C94.8179 15.2023 94.3749 15.3703 94.0542 15.7063C93.7487 16.027 93.596 16.4547 93.596 16.9893V17.8141H96.2078C96.6049 17.8141 96.8798 17.753 97.0326 17.6308C97.1853 17.5086 97.2617 17.2948 97.2617 16.9893C97.2617 16.4089 97.1013 15.9659 96.7806 15.6605C96.4598 15.355 95.994 15.2023 95.383 15.2023ZM107.838 24L105.639 20.655L103.577 24H100.575L104.104 18.341L100.736 13.2319H103.714L105.822 16.4165L107.792 13.2319H110.771L107.357 18.7534L110.839 24H107.838ZM115.267 15.523V19.9677C115.267 20.6092 115.366 21.0598 115.565 21.3194C115.763 21.5791 116.099 21.7089 116.573 21.7089H118.383V24H116.573C115.503 24 114.656 23.8702 114.03 23.6105C113.419 23.3509 112.976 22.9308 112.701 22.3504C112.426 21.77 112.288 20.9758 112.288 19.9677V11.5594C112.288 11.147 112.204 10.811 112.036 10.5514C111.884 10.2917 111.601 10.0091 111.189 9.70366L113.182 7.96244C113.961 8.35956 114.503 8.81778 114.808 9.33709C115.114 9.84113 115.267 10.5514 115.267 11.4678V13.2319H118.383V15.523H115.267ZM164.368 13.2319H167.072L168.767 21.3423C168.935 21.2202 169.096 20.9452 169.248 20.5176L171.654 13.9422L174.106 20.5176C174.243 20.8994 174.388 21.1591 174.541 21.2965L176.236 13.2319H178.94L176.488 24H175.343C174.747 24 174.274 23.9313 173.922 23.7938C173.571 23.6411 173.273 23.3967 173.029 23.0607C172.8 22.7094 172.586 22.213 172.387 21.5715L171.654 19.4637L170.921 21.5715C170.707 22.2435 170.486 22.7475 170.257 23.0836C170.027 23.4196 169.737 23.6563 169.386 23.7938C169.035 23.9313 168.561 24 167.965 24H166.82L164.368 13.2319ZM182.423 11.7885C181.949 11.7885 181.544 11.6205 181.208 11.2845C180.872 10.9485 180.704 10.5437 180.704 10.0702C180.704 9.61202 180.872 9.2149 181.208 8.87887C181.544 8.52757 181.949 8.35192 182.423 8.35192C182.881 8.35192 183.278 8.52757 183.614 8.87887C183.965 9.2149 184.141 9.61202 184.141 10.0702C184.141 10.5437 183.965 10.9485 183.614 11.2845C183.278 11.6205 182.881 11.7885 182.423 11.7885ZM183.018 24.2749C182.239 23.8778 181.697 23.4272 181.392 22.9232C181.086 22.4039 180.933 21.686 180.933 20.7696V13.2319H183.912V20.6779C183.912 21.0903 183.988 21.4264 184.141 21.686C184.309 21.9457 184.599 22.2282 185.011 22.5337L183.018 24.2749ZM189.462 24.2749C188.683 23.8778 188.141 23.4272 187.836 22.9232C187.53 22.4039 187.378 21.686 187.378 20.7696V10.4139C187.378 10.0015 187.294 9.66548 187.126 9.40582C186.973 9.14617 186.69 8.8636 186.278 8.55812L188.271 6.8169C189.05 7.21402 189.592 7.67224 189.898 8.19155C190.203 8.69559 190.356 9.40582 190.356 10.3223V20.6779C190.356 21.0903 190.432 21.4264 190.585 21.686C190.753 21.9457 191.043 22.2282 191.456 22.5337L189.462 24.2749ZM195.682 24.2749C194.903 23.8778 194.361 23.4272 194.056 22.9232C193.75 22.4039 193.597 21.686 193.597 20.7696V10.4139C193.597 10.0015 193.513 9.66548 193.345 9.40582C193.193 9.14617 192.91 8.8636 192.498 8.55812L194.491 6.8169C195.27 7.21402 195.812 7.67224 196.118 8.19155C196.423 8.69559 196.576 9.40582 196.576 10.3223V20.6779C196.576 21.0903 196.652 21.4264 196.805 21.686C196.973 21.9457 197.263 22.2282 197.676 22.5337L195.682 24.2749ZM210.658 24.2749C209.069 24.2749 207.847 23.9084 206.992 23.1752C206.137 22.4421 205.709 21.3958 205.709 20.0364V17.1955C205.709 15.8361 206.137 14.7899 206.992 14.0567C207.847 13.3236 209.069 12.957 210.658 12.957C212.246 12.957 213.468 13.3236 214.324 14.0567C215.179 14.7899 215.607 15.8361 215.607 17.1955V20.0364C215.607 21.3958 215.179 22.4421 214.324 23.1752C213.468 23.9084 212.246 24.2749 210.658 24.2749ZM210.658 21.9838C211.284 21.9838 211.765 21.8158 212.101 21.4798C212.452 21.1438 212.628 20.6627 212.628 20.0364V17.1955C212.628 16.5693 212.452 16.0881 212.101 15.7521C211.765 15.4161 211.284 15.2481 210.658 15.2481C210.032 15.2481 209.543 15.4161 209.191 15.7521C208.855 16.0881 208.687 16.5693 208.687 17.1955V20.0364C208.687 20.6627 208.855 21.1438 209.191 21.4798C209.543 21.8158 210.032 21.9838 210.658 21.9838ZM224.509 12.957C225.517 12.957 226.373 13.2014 227.075 13.6901C227.793 14.1636 228.328 14.8051 228.679 15.6146C229.03 16.4089 229.206 17.2871 229.206 18.2494V18.9825C229.206 19.9448 229.03 20.8307 228.679 21.6402C228.328 22.4344 227.793 23.0759 227.075 23.5647C226.373 24.0382 225.517 24.2749 224.509 24.2749C223.639 24.2749 222.951 24.1604 222.447 23.9313C221.958 23.6869 221.538 23.3356 221.187 22.8774V29.0175H218.209V16.554C218.209 16.1416 218.125 15.8056 217.957 15.5459C217.804 15.2863 217.521 15.0037 217.109 14.6982L219.102 12.957C219.606 13.2167 220.003 13.4916 220.294 13.7818C220.599 14.072 220.821 14.4156 220.958 14.8128C221.737 13.5756 222.921 12.957 224.509 12.957ZM226.227 18.2494C226.227 17.4246 225.998 16.722 225.54 16.1416C225.097 15.5459 224.463 15.2481 223.639 15.2481C222.356 15.2481 221.538 15.8743 221.187 17.1268V20.1052C221.538 21.3576 222.356 21.9838 223.639 21.9838C224.479 21.9838 225.12 21.6936 225.563 21.1132C226.006 20.5328 226.227 19.8226 226.227 18.9825V18.2494ZM236.12 22.0297C236.685 22.0297 237.143 21.9609 237.494 21.8235C237.846 21.6707 238.228 21.4111 238.64 21.0445L240.404 22.6483C239.518 23.7327 238.09 24.2749 236.12 24.2749C234.363 24.2749 233.096 23.9465 232.317 23.2898C231.538 22.6177 231.148 21.5333 231.148 20.0364V16.7602C231.148 15.5841 231.568 14.66 232.408 13.988C233.264 13.3007 234.424 12.957 235.891 12.957C237.403 12.957 238.586 13.3236 239.442 14.0567C240.297 14.7746 240.725 15.8285 240.725 17.2184C240.725 17.8905 240.664 18.4098 240.542 18.7763C240.435 19.1429 240.213 19.4178 239.877 19.6011C239.541 19.7691 239.052 19.8531 238.411 19.8531H234.104V20.0593C234.104 21.3729 234.776 22.0297 236.12 22.0297ZM235.891 15.2023C235.325 15.2023 234.883 15.3703 234.562 15.7063C234.256 16.027 234.104 16.4547 234.104 16.9893V17.8141H236.715C237.113 17.8141 237.387 17.753 237.54 17.6308C237.693 17.5086 237.769 17.2948 237.769 16.9893C237.769 16.4089 237.609 15.9659 237.288 15.6605C236.967 15.355 236.502 15.2023 235.891 15.2023ZM249.002 12.957C250.178 12.957 251.079 13.2777 251.706 13.9192C252.347 14.5608 252.668 15.4772 252.668 16.6685V24H249.689V16.9435C249.689 16.4242 249.544 16.0118 249.254 15.7063C248.979 15.4008 248.605 15.2481 248.131 15.2481C247.123 15.2481 246.398 15.8438 245.955 17.0351V24H242.977V16.554C242.977 16.1416 242.892 15.8056 242.724 15.5459C242.572 15.2863 242.289 15.0037 241.877 14.6982L243.87 12.957C244.359 13.2014 244.741 13.461 245.016 13.736C245.306 14.0109 245.527 14.3316 245.68 14.6982C246.001 14.1789 246.428 13.7589 246.963 13.4381C247.513 13.1174 248.193 12.957 249.002 12.957ZM263.595 11.7885C263.121 11.7885 262.717 11.6205 262.381 11.2845C262.044 10.9485 261.876 10.5437 261.876 10.0702C261.876 9.61202 262.044 9.2149 262.381 8.87887C262.717 8.52757 263.121 8.35192 263.595 8.35192C264.053 8.35192 264.45 8.52757 264.786 8.87887C265.137 9.2149 265.313 9.61202 265.313 10.0702C265.313 10.5437 265.137 10.9485 264.786 11.2845C264.45 11.6205 264.053 11.7885 263.595 11.7885ZM264.19 24.2749C263.411 23.8778 262.869 23.4272 262.564 22.9232C262.258 22.4039 262.106 21.686 262.106 20.7696V13.2319H265.084V20.6779C265.084 21.0903 265.16 21.4264 265.313 21.686C265.481 21.9457 265.771 22.2282 266.184 22.5337L264.19 24.2749ZM274.463 12.957C275.64 12.957 276.541 13.2777 277.167 13.9192C277.808 14.5608 278.129 15.4772 278.129 16.6685V24H275.151V16.9435C275.151 16.4242 275.006 16.0118 274.715 15.7063C274.441 15.4008 274.066 15.2481 273.593 15.2481C272.585 15.2481 271.859 15.8438 271.416 17.0351V24H268.438V16.554C268.438 16.1416 268.354 15.8056 268.186 15.5459C268.033 15.2863 267.751 15.0037 267.338 14.6982L269.331 12.957C269.82 13.2014 270.202 13.461 270.477 13.736C270.767 14.0109 270.989 14.3316 271.141 14.6982C271.462 14.1789 271.89 13.7589 272.424 13.4381C272.974 13.1174 273.654 12.957 274.463 12.957Z" fill="#0275CB"/>
<path d="M135.498 37.9624V54H132.52V40.643L128.831 42.7966V40.1848L132.634 37.9624H135.498ZM145.017 54.2749C143.123 54.2749 141.672 53.7556 140.664 52.717C139.656 51.6631 139.152 50.1586 139.152 48.2036V43.5298C139.152 41.6511 139.656 40.2077 140.664 39.1996C141.672 38.1915 143.123 37.6875 145.017 37.6875C146.911 37.6875 148.362 38.1915 149.371 39.1996C150.379 40.2077 150.883 41.6511 150.883 43.5298V48.2036C150.883 50.1586 150.379 51.6631 149.371 52.717C148.362 53.7556 146.911 54.2749 145.017 54.2749ZM145.017 51.9838C145.949 51.9838 146.659 51.6631 147.148 51.0216C147.652 50.3648 147.904 49.4255 147.904 48.2036V43.5298C147.904 42.3842 147.652 41.506 147.148 40.895C146.659 40.2841 145.949 39.9786 145.017 39.9786C144.086 39.9786 143.368 40.2841 142.864 40.895C142.375 41.506 142.131 42.3842 142.131 43.5298V48.2036C142.131 49.4255 142.375 50.3648 142.864 51.0216C143.368 51.6631 144.086 51.9838 145.017 51.9838ZM172.381 42.957C173.496 42.957 174.344 43.2777 174.924 43.9192C175.52 44.5608 175.817 45.4772 175.817 46.6685V54H172.839V46.9435C172.839 46.4242 172.717 46.0118 172.472 45.7063C172.243 45.4008 171.923 45.2481 171.51 45.2481C170.609 45.2481 169.945 45.8208 169.517 46.9664V54H166.539V46.9435C166.539 46.4242 166.416 46.0118 166.172 45.7063C165.943 45.4008 165.622 45.2481 165.21 45.2481C164.309 45.2481 163.644 45.8208 163.217 46.9664V54H160.238V46.554C160.238 46.1416 160.154 45.8056 159.986 45.5459C159.833 45.2863 159.551 45.0037 159.138 44.6982L161.132 42.957C162.048 43.3999 162.651 43.9803 162.942 44.6982C163.659 43.5374 164.706 42.957 166.08 42.957C166.844 42.957 167.486 43.1174 168.005 43.4381C168.539 43.7436 168.929 44.1942 169.173 44.7899C169.861 43.5679 170.93 42.957 172.381 42.957ZM180.23 41.7885C179.756 41.7885 179.352 41.6205 179.016 41.2845C178.68 40.9485 178.512 40.5437 178.512 40.0702C178.512 39.612 178.68 39.2149 179.016 38.8789C179.352 38.5276 179.756 38.3519 180.23 38.3519C180.688 38.3519 181.085 38.5276 181.421 38.8789C181.773 39.2149 181.948 39.612 181.948 40.0702C181.948 40.5437 181.773 40.9485 181.421 41.2845C181.085 41.6205 180.688 41.7885 180.23 41.7885ZM180.826 54.2749C180.047 53.8778 179.504 53.4272 179.199 52.9232C178.893 52.4039 178.741 51.686 178.741 50.7696V43.2319H181.719V50.6779C181.719 51.0903 181.795 51.4264 181.948 51.686C182.116 51.9457 182.406 52.2282 182.819 52.5337L180.826 54.2749ZM191.099 42.957C192.275 42.957 193.176 43.2777 193.802 43.9192C194.444 44.5608 194.764 45.4772 194.764 46.6685V54H191.786V46.9435C191.786 46.4242 191.641 46.0118 191.351 45.7063C191.076 45.4008 190.701 45.2481 190.228 45.2481C189.22 45.2481 188.494 45.8438 188.051 47.0351V54H185.073V46.554C185.073 46.1416 184.989 45.8056 184.821 45.5459C184.668 45.2863 184.386 45.0037 183.973 44.6982L185.967 42.957C186.455 43.2014 186.837 43.461 187.112 43.736C187.402 44.0109 187.624 44.3316 187.777 44.6982C188.097 44.1789 188.525 43.7589 189.06 43.4381C189.609 43.1174 190.289 42.957 191.099 42.957Z" fill="#FF0000"/>
</svg>
